<mxfile host="www.draw.io" modified="2023-04-11T23:17:52.474Z" agent="Mozilla/5.0 (Windows NT 10.0; Win64; x64) AppleWebKit/537.36 (KHTML, like Gecko) Chrome/111.0.0.0 Safari/537.36" etag="IbKTuyyB0NOj_igPnOjA" version="21.1.6" type="device">
  <diagram name="Página-1" id="jzwjSWZernBkuC_aoU9N">
    <mxGraphModel dx="1434" dy="796" grid="1" gridSize="10" guides="1" tooltips="1" connect="1" arrows="1" fold="1" page="1" pageScale="1" pageWidth="827" pageHeight="1169" math="0" shadow="0">
      <root>
        <mxCell id="0" />
        <mxCell id="1" parent="0" />
        <mxCell id="XnjYj920jZ-blB4XPl0A-1" value="Consultor&lt;br&gt;" style="shape=umlActor;verticalLabelPosition=bottom;verticalAlign=top;html=1;outlineConnect=0;" vertex="1" parent="1">
          <mxGeometry x="80" y="370" width="40" height="70" as="geometry" />
        </mxCell>
        <mxCell id="XnjYj920jZ-blB4XPl0A-2" value="Cliente&lt;br&gt;" style="shape=umlActor;verticalLabelPosition=bottom;verticalAlign=top;html=1;outlineConnect=0;" vertex="1" parent="1">
          <mxGeometry x="680" y="370" width="40" height="70" as="geometry" />
        </mxCell>
        <mxCell id="XnjYj920jZ-blB4XPl0A-9" value="Cadastro de Setor" style="ellipse;whiteSpace=wrap;html=1;" vertex="1" parent="1">
          <mxGeometry x="349" y="10" width="111" height="100" as="geometry" />
        </mxCell>
        <mxCell id="XnjYj920jZ-blB4XPl0A-12" value="Cadastro de Área" style="ellipse;whiteSpace=wrap;html=1;" vertex="1" parent="1">
          <mxGeometry x="349" y="120" width="111" height="100" as="geometry" />
        </mxCell>
        <mxCell id="XnjYj920jZ-blB4XPl0A-13" value="Cadastro de Pergunta/Resposta" style="ellipse;whiteSpace=wrap;html=1;" vertex="1" parent="1">
          <mxGeometry x="349" y="230" width="111" height="100" as="geometry" />
        </mxCell>
        <mxCell id="XnjYj920jZ-blB4XPl0A-16" value="" style="endArrow=classic;startArrow=classic;html=1;rounded=0;entryX=0;entryY=0.5;entryDx=0;entryDy=0;" edge="1" parent="1" target="XnjYj920jZ-blB4XPl0A-12">
          <mxGeometry width="50" height="50" relative="1" as="geometry">
            <mxPoint x="120" y="390" as="sourcePoint" />
            <mxPoint x="290" y="160" as="targetPoint" />
          </mxGeometry>
        </mxCell>
        <mxCell id="XnjYj920jZ-blB4XPl0A-17" value="" style="endArrow=classic;startArrow=classic;html=1;rounded=0;entryX=0;entryY=0.5;entryDx=0;entryDy=0;exitX=1;exitY=0.3333333333333333;exitDx=0;exitDy=0;exitPerimeter=0;" edge="1" parent="1" source="XnjYj920jZ-blB4XPl0A-1" target="XnjYj920jZ-blB4XPl0A-9">
          <mxGeometry width="50" height="50" relative="1" as="geometry">
            <mxPoint x="120" y="93" as="sourcePoint" />
            <mxPoint x="349" y="70" as="targetPoint" />
          </mxGeometry>
        </mxCell>
        <mxCell id="XnjYj920jZ-blB4XPl0A-18" value="" style="endArrow=classic;startArrow=classic;html=1;rounded=0;entryX=0;entryY=0.5;entryDx=0;entryDy=0;exitX=1;exitY=0.3333333333333333;exitDx=0;exitDy=0;exitPerimeter=0;" edge="1" parent="1" source="XnjYj920jZ-blB4XPl0A-1" target="XnjYj920jZ-blB4XPl0A-13">
          <mxGeometry width="50" height="50" relative="1" as="geometry">
            <mxPoint x="130" y="200" as="sourcePoint" />
            <mxPoint x="329" y="290" as="targetPoint" />
          </mxGeometry>
        </mxCell>
        <mxCell id="XnjYj920jZ-blB4XPl0A-19" value="Criação de Grupos de Consultoria" style="ellipse;whiteSpace=wrap;html=1;" vertex="1" parent="1">
          <mxGeometry x="349" y="340" width="111" height="100" as="geometry" />
        </mxCell>
        <mxCell id="XnjYj920jZ-blB4XPl0A-20" value="" style="endArrow=classic;startArrow=classic;html=1;rounded=0;entryX=0;entryY=0.5;entryDx=0;entryDy=0;exitX=1;exitY=0.3333333333333333;exitDx=0;exitDy=0;exitPerimeter=0;" edge="1" parent="1" source="XnjYj920jZ-blB4XPl0A-1">
          <mxGeometry width="50" height="50" relative="1" as="geometry">
            <mxPoint x="120" y="513" as="sourcePoint" />
            <mxPoint x="349" y="400" as="targetPoint" />
          </mxGeometry>
        </mxCell>
        <mxCell id="XnjYj920jZ-blB4XPl0A-21" value="Responder Formulário" style="ellipse;whiteSpace=wrap;html=1;" vertex="1" parent="1">
          <mxGeometry x="349" y="490" width="111" height="100" as="geometry" />
        </mxCell>
        <mxCell id="XnjYj920jZ-blB4XPl0A-22" value="" style="endArrow=classic;startArrow=classic;html=1;rounded=0;exitX=1.018;exitY=0.38;exitDx=0;exitDy=0;exitPerimeter=0;" edge="1" parent="1" source="XnjYj920jZ-blB4XPl0A-21" target="XnjYj920jZ-blB4XPl0A-2">
          <mxGeometry width="50" height="50" relative="1" as="geometry">
            <mxPoint x="540" y="510" as="sourcePoint" />
            <mxPoint x="590" y="460" as="targetPoint" />
          </mxGeometry>
        </mxCell>
        <mxCell id="XnjYj920jZ-blB4XPl0A-23" value="Acesso ao feedback do Formulário" style="ellipse;whiteSpace=wrap;html=1;" vertex="1" parent="1">
          <mxGeometry x="349" y="610" width="111" height="100" as="geometry" />
        </mxCell>
        <mxCell id="XnjYj920jZ-blB4XPl0A-24" value="" style="endArrow=classic;startArrow=classic;html=1;rounded=0;exitX=0.991;exitY=0.38;exitDx=0;exitDy=0;exitPerimeter=0;" edge="1" parent="1" source="XnjYj920jZ-blB4XPl0A-23" target="XnjYj920jZ-blB4XPl0A-2">
          <mxGeometry width="50" height="50" relative="1" as="geometry">
            <mxPoint x="462" y="596" as="sourcePoint" />
            <mxPoint x="680" y="520" as="targetPoint" />
          </mxGeometry>
        </mxCell>
        <mxCell id="XnjYj920jZ-blB4XPl0A-25" value="" style="endArrow=classic;startArrow=classic;html=1;rounded=0;entryX=0.036;entryY=0.34;entryDx=0;entryDy=0;entryPerimeter=0;" edge="1" parent="1" target="XnjYj920jZ-blB4XPl0A-23">
          <mxGeometry width="50" height="50" relative="1" as="geometry">
            <mxPoint x="120" y="390" as="sourcePoint" />
            <mxPoint x="349" y="577" as="targetPoint" />
          </mxGeometry>
        </mxCell>
        <mxCell id="XnjYj920jZ-blB4XPl0A-30" value="" style="endArrow=none;dashed=1;html=1;dashPattern=1 3;strokeWidth=2;rounded=0;entryX=0.5;entryY=1;entryDx=0;entryDy=0;exitX=0.5;exitY=0;exitDx=0;exitDy=0;" edge="1" parent="1" source="XnjYj920jZ-blB4XPl0A-21" target="XnjYj920jZ-blB4XPl0A-19">
          <mxGeometry width="50" height="50" relative="1" as="geometry">
            <mxPoint x="390" y="490" as="sourcePoint" />
            <mxPoint x="440" y="440" as="targetPoint" />
          </mxGeometry>
        </mxCell>
        <mxCell id="XnjYj920jZ-blB4XPl0A-31" value="&amp;lt;&amp;lt; include &amp;gt;&amp;gt;" style="text;html=1;strokeColor=none;fillColor=default;align=center;verticalAlign=middle;whiteSpace=wrap;rounded=0;" vertex="1" parent="1">
          <mxGeometry x="364.5" y="450" width="80" height="30" as="geometry" />
        </mxCell>
      </root>
    </mxGraphModel>
  </diagram>
</mxfile>
